<?xml version="1.0" encoding="UTF-8" standalone="no"?>
<!DOCTYPE svg PUBLIC "-//W3C//DTD SVG 20010904//EN"
              "http://www.w3.org/TR/2001/REC-SVG-20010904/DTD/svg10.dtd">

<svg xmlns="http://www.w3.org/2000/svg"
     width="616.796mm" height="390.614mm"
     viewBox="0 0 1748 1107">
  <path id="Blue"
        fill="#00558b" stroke="none" stroke-width="1"
        d="M 1188.00,233.00
           C 1188.00,233.00 1188.56,163.25 1184.44,153.69
             1181.52,140.65 1176.67,121.77 1170.30,110.00
             1140.91,55.67 1078.04,38.69 1020.00,38.01
             1020.00,38.01 861.00,38.00 861.00,38.00
             816.73,38.53 749.83,51.69 717.52,83.55
             676.68,123.81 677.39,194.80 678.01,248.00
             678.42,282.90 688.72,332.05 711.98,358.88
             750.74,403.60 824.33,406.51 879.00,410.26
             879.00,410.26 921.00,413.01 921.00,413.01
             921.00,413.01 954.94,415.06 954.94,415.06
             985.27,416.38 1032.99,411.89 1051.88,440.38
             1061.03,454.18 1060.52,475.90 1060.50,491.75
             1060.48,506.31 1059.48,524.43 1052.44,537.69
             1042.28,556.81 1025.25,560.24 1005.38,563.56
             1005.38,563.56 896.06,564.12 896.06,564.12
             870.68,564.09 841.21,561.53 826.69,537.50
             819.86,526.20 817.66,510.21 817.31,497.19
             817.13,490.20 817.31,472.06 817.31,472.06
             817.31,472.06 677.44,471.88 677.44,471.88
             677.44,527.45 674.31,591.85 717.52,634.45
             744.48,661.04 782.89,670.07 819.00,675.26
             859.91,681.14 900.78,680.00 942.00,680.00
             984.68,680.00 1025.65,681.23 1068.00,674.24
             1103.50,668.38 1140.36,657.95 1166.45,631.48
             1206.66,590.70 1204.75,524.33 1204.12,470.56
             1203.93,454.22 1201.62,410.50 1196.88,395.00
             1172.75,315.95 1102.14,308.51 1032.00,301.50
             1032.00,301.50 969.00,296.12 969.00,296.12
             886.69,292.81 846.56,296.13 830.06,263.19
             824.82,252.72 824.66,229.75 825.12,218.00
             825.44,209.89 825.81,192.41 828.82,185.00
             847.48,139.10 932.18,150.45 972.82,150.64
             992.17,150.73 1016.10,153.11 1031.18,166.45
             1052.08,184.95 1047.00,207.79 1047.00,233.00
             1047.00,233.00 1188.00,233.00 1188.00,233.00 Z
           M 465.00,41.00
           C 465.00,41.00 243.75,42.50 243.75,42.50
             243.75,42.50 42.00,674.00 42.00,674.00
             42.00,674.00 162.75,674.38 162.75,674.38
             162.75,674.38 254.34,638.19 254.34,638.19
             254.34,638.19 78.00,638.00 78.00,638.00
             78.00,638.00 82.12,622.25 82.12,622.25
             82.12,622.25 291.38,622.34 291.38,622.34
             298.12,619.73 301.70,613.81 305.61,607.94
             321.19,584.54 314.54,561.95 311.16,536.00
             309.81,525.67 308.66,502.45 301.32,495.46
             298.12,492.42 292.41,489.22 292.41,489.22
             292.41,489.22 280.78,502.16 280.78,502.16
             280.78,502.16 289.41,508.44 289.41,508.44
             294.18,519.81 294.87,541.44 297.37,557.75
             298.30,566.41 300.73,578.09 297.37,586.54
             292.78,600.02 284.81,609.69 270.94,614.56
             270.94,614.56 251.62,593.38 251.62,593.38
             251.62,593.38 93.00,593.00 93.00,593.00
             93.00,593.00 97.50,578.00 97.50,578.00
             97.50,578.00 237.00,578.00 237.00,578.00
             237.00,578.00 228.00,545.00 228.00,545.00
             228.00,545.00 111.00,545.00 111.00,545.00
             111.00,545.00 114.00,530.00 114.00,530.00
             114.00,530.00 225.00,530.00 225.00,530.00
             219.87,502.77 206.03,456.90 207.97,431.00
             211.53,383.44 218.02,358.11 237.38,315.12
             242.14,304.54 258.18,276.84 270.94,260.94
             272.81,258.60 273.38,255.69 274.12,252.69
             276.23,248.95 282.00,245.19 285.56,243.88
             291.75,243.12 296.37,246.78 301.88,246.12
             314.44,242.75 322.50,238.25 351.56,246.12
             362.44,248.94 372.00,261.12 372.00,261.12
             372.00,261.12 399.00,265.62 414.94,274.44
             414.00,282.31 411.00,291.50 402.56,301.81
             393.05,307.15 375.52,299.51 364.28,309.95
             355.92,317.72 350.33,344.43 348.00,356.00
             348.00,356.00 364.88,359.56 364.88,359.56
             364.88,359.56 369.94,342.12 369.94,342.12
             426.29,354.98 517.78,390.45 545.25,444.12
             557.05,467.19 555.00,504.39 555.00,530.00
             555.00,530.00 600.00,530.00 600.00,530.00
             600.00,530.00 603.00,545.00 603.00,545.00
             603.00,545.00 553.83,544.87 553.83,544.87
             553.83,544.87 553.23,561.96 550.75,578.00
             550.75,578.00 613.50,578.00 613.50,578.00
             613.50,578.00 618.00,593.00 618.00,593.00
             618.00,593.00 548.48,593.00 548.48,593.00
             548.48,593.00 548.47,593.64 543.38,622.00
             543.38,622.00 628.12,622.00 628.12,622.00
             628.12,622.00 632.00,638.00 632.00,638.00
             632.00,638.00 540.25,638.00 540.25,638.00
             540.25,638.00 538.43,647.91 536.22,655.09
             536.22,655.09 561.52,666.17 579.13,674.39
             579.13,674.39 633.13,674.39 665.22,674.39
             665.22,674.39 465.00,41.00 465.00,41.00 Z
           M 1707.00,41.00
           C 1707.00,41.00 1272.00,41.00 1272.00,41.00
             1272.00,41.00 1272.00,674.38 1272.00,674.38
             1272.00,674.38 1419.00,674.38 1419.00,674.38
             1419.00,674.38 1419.00,431.00 1419.00,431.00
             1419.00,431.00 1689.00,431.00 1689.00,431.00
             1689.00,431.00 1689.00,308.00 1689.00,308.00
             1689.00,308.00 1419.00,308.00 1419.00,308.00
             1419.00,308.00 1419.00,164.00 1419.00,164.00
             1419.00,164.00 1707.00,164.00 1707.00,164.00
             1707.00,164.00 1707.00,41.00 1707.00,41.00 Z
           M 384.00,473.00
           C 384.00,473.00 385.13,507.21 382.72,524.00
             376.51,567.27 370.68,577.57 357.00,617.00
             362.66,616.80 375.75,616.62 375.75,616.62
             389.44,586.44 393.99,565.29 396.00,551.00
             396.00,551.00 431.06,565.62 431.06,565.62
             437.76,578.45 437.25,588.31 437.25,596.56
             434.85,606.71 427.33,612.94 423.00,623.00
             423.00,623.00 460.31,633.69 460.31,633.69
             452.06,598.25 450.19,563.56 444.94,554.56
             444.94,554.56 399.00,533.00 399.00,533.00
             403.50,513.12 401.44,475.06 401.44,475.06
             401.44,475.06 384.00,473.00 384.00,473.00 Z
           M 43.72,877.75
           C 43.72,847.34 52.09,821.61 68.84,800.56
             85.59,779.52 107.98,769.00 136.00,769.00
             166.86,769.00 190.45,778.53 206.75,797.58
             223.06,816.62 231.22,843.34 231.22,877.75
             231.22,912.16 222.70,939.47 205.66,959.69
             188.61,979.90 164.42,990.00 133.08,990.00
             104.27,990.00 82.16,979.99 66.78,959.97
             51.41,939.95 43.72,912.54 43.72,877.75 Z
           M 83.27,877.77
           C 83.27,902.63 87.51,921.89 96.00,935.53
             104.50,949.18 116.86,956.00 133.08,956.00
             152.12,956.00 166.64,949.32 176.66,935.97
             186.66,922.62 191.67,903.21 191.67,877.77
             191.67,827.92 173.11,803.00 136.00,803.00
             119.01,803.00 105.97,809.75 96.89,823.25
             87.80,836.75 83.27,854.92 83.27,877.77 Z
           M 296.47,983.11
           C 296.47,983.11 296.47,1049.00 296.47,1049.00
             296.47,1049.00 259.84,1049.00 259.84,1049.00
             259.84,1049.00 259.84,830.00 259.84,830.00
             259.84,830.00 296.47,830.00 296.47,830.00
             296.47,830.00 296.47,840.55 296.47,840.55
             305.64,831.52 316.93,827.00 330.31,827.00
             380.31,827.00 405.31,854.59 405.31,909.75
             405.31,935.47 398.40,955.28 384.58,969.17
             370.77,983.06 351.89,990.00 327.97,990.00
             316.44,990.00 305.94,987.70 296.47,983.11 Z
           M 296.47,868.28
           C 296.47,868.28 296.47,950.92 296.47,950.92
             303.10,956.31 310.87,959.00 319.77,959.00
             336.65,959.00 348.78,954.96 356.16,946.89
             363.53,938.82 367.22,926.07 367.22,908.64
             367.22,890.05 363.55,876.96 356.23,869.38
             348.91,861.79 336.80,858.00 319.91,858.00
             311.11,858.00 303.30,861.43 296.47,868.28 Z
           M 577.81,920.00
           C 577.81,920.00 465.75,920.00 465.75,920.00
             466.44,932.65 470.73,942.48 478.64,949.48
             486.55,956.50 497.19,960.00 510.58,960.00
             527.27,960.00 539.97,955.34 548.67,946.00
             548.67,946.00 562.88,974.00 562.88,974.00
             549.98,984.67 530.74,990.00 505.16,990.00
             481.23,990.00 462.30,982.98 448.39,968.95
             434.47,954.91 427.52,935.32 427.52,910.19
             427.52,885.44 435.16,865.39 450.44,850.03
             465.72,834.68 484.05,827.00 505.45,827.00
             528.20,827.00 546.46,833.82 560.23,847.45
             574.00,861.09 580.89,878.45 580.89,899.55
             580.89,904.06 579.86,910.88 577.81,920.00 Z
           M 467.08,892.00
           C 467.08,892.00 544.12,892.00 544.12,892.00
             541.58,868.67 528.89,857.00 506.05,857.00
             485.14,857.00 472.15,868.67 467.08,892.00 Z
           M 710.70,987.00
           C 710.70,987.00 710.70,895.77 710.70,895.77
             710.70,882.31 708.14,872.48 703.02,866.30
             697.89,860.10 689.52,857.00 677.89,857.00
             672.52,857.00 666.77,858.53 660.67,861.58
             654.57,864.62 649.80,868.40 646.39,872.92
             646.39,872.92 646.39,987.00 646.39,987.00
             646.39,987.00 609.78,987.00 609.78,987.00
             609.78,987.00 609.78,830.00 609.78,830.00
             609.78,830.00 636.14,830.00 636.14,830.00
             636.14,830.00 642.89,844.66 642.89,844.66
             652.85,832.89 667.55,827.00 686.98,827.00
             705.63,827.00 720.35,832.60 731.14,843.80
             741.93,854.98 747.33,870.60 747.33,890.64
             747.33,890.64 747.33,987.00 747.33,987.00
             747.33,987.00 710.70,987.00 710.70,987.00 Z
           M 778.72,974.36
           C 778.72,974.36 792.78,940.00 792.78,940.00
             807.82,950.67 822.62,956.00 837.17,956.00
             859.54,956.00 870.72,948.23 870.72,932.67
             870.72,925.38 868.08,918.43 862.80,911.83
             857.52,905.21 846.66,897.80 830.20,889.59
             813.75,881.38 802.67,874.62 796.95,869.34
             791.24,864.05 786.85,857.77 783.77,850.50
             780.69,843.22 779.16,835.16 779.16,826.33
             779.16,809.84 785.23,796.16 797.39,785.30
             809.55,774.43 825.16,769.00 844.20,769.00
             869.00,769.00 887.22,773.67 898.84,783.00
             898.84,783.00 887.27,816.00 887.27,816.00
             873.89,806.00 859.78,801.00 844.94,801.00
             836.14,801.00 829.33,803.31 824.50,807.94
             819.66,812.55 817.25,818.55 817.25,825.94
             817.25,838.19 830.88,850.92 858.12,864.14
             872.48,871.16 882.83,877.62 889.17,883.52
             895.52,889.41 900.36,896.28 903.67,904.12
             906.99,911.97 908.66,920.71 908.66,930.36
             908.66,947.70 901.80,961.98 888.08,973.19
             874.36,984.40 855.97,990.00 832.92,990.00
             812.90,990.00 794.83,984.79 778.72,974.36 Z
           M 1067.22,987.00
           C 1067.22,987.00 1051.55,943.00 1051.55,943.00
             1051.55,943.00 978.02,943.00 978.02,943.00
             978.02,943.00 963.06,987.00 963.06,987.00
             963.06,987.00 920.73,987.00 920.73,987.00
             920.73,987.00 1006.28,769.00 1006.28,769.00
             1006.28,769.00 1022.98,769.00 1022.98,769.00
             1022.98,769.00 1109.27,987.00 1109.27,987.00
             1109.27,987.00 1067.22,987.00 1067.22,987.00 Z
           M 1014.62,835.00
           C 1014.62,835.00 988.84,914.00 988.84,914.00
             988.84,914.00 1040.41,914.00 1040.41,914.00
             1040.41,914.00 1014.62,835.00 1014.62,835.00 Z
           M 1252.97,987.00
           C 1252.97,987.00 1195.69,898.00 1195.69,898.00
             1189.93,897.91 1181.88,897.56 1171.53,896.97
             1171.53,896.97 1171.53,987.00 1171.53,987.00
             1171.53,987.00 1131.97,987.00 1131.97,987.00
             1131.97,987.00 1131.97,772.20 1131.97,772.20
             1134.11,772.20 1142.36,771.84 1156.72,771.11
             1171.08,770.37 1182.66,770.00 1191.44,770.00
             1245.94,770.00 1273.19,791.06 1273.19,833.19
             1273.19,845.87 1269.43,857.42 1261.91,867.86
             1254.38,878.29 1244.91,885.65 1233.48,889.94
             1233.48,889.94 1296.92,987.00 1296.92,987.00
             1296.92,987.00 1252.97,987.00 1252.97,987.00 Z
           M 1171.53,804.88
           C 1171.53,804.88 1171.53,865.12 1171.53,865.12
             1178.56,865.71 1183.93,866.00 1187.64,866.00
             1203.55,866.00 1215.20,863.73 1222.58,859.20
             1229.95,854.66 1233.64,845.83 1233.64,832.70
             1233.64,822.05 1229.68,814.60 1221.77,810.36
             1213.86,806.12 1201.41,804.00 1184.42,804.00
             1180.32,804.00 1176.02,804.29 1171.53,804.88 Z
           M 1319.08,771.80
           C 1319.08,771.80 1355.70,763.00 1355.70,763.00
             1355.70,763.00 1355.70,939.36 1355.70,939.36
             1355.70,958.70 1361.46,970.23 1372.98,973.94
             1367.32,984.65 1357.65,990.00 1343.98,990.00
             1327.38,990.00 1319.08,978.48 1319.08,955.44
             1319.08,955.44 1319.08,771.80 1319.08,771.80 Z
           M 1488.08,970.94
           C 1484.75,976.54 1478.97,981.12 1470.72,984.67
             1462.47,988.22 1453.85,990.00 1444.86,990.00
             1427.96,990.00 1414.68,985.77 1405.02,977.30
             1395.35,968.82 1390.52,956.79 1390.52,941.20
             1390.52,922.98 1397.33,908.72 1410.95,898.44
             1424.58,888.15 1443.94,883.00 1469.03,883.00
             1473.33,883.00 1478.41,883.67 1484.27,885.00
             1484.27,866.34 1472.60,857.00 1449.27,857.00
             1435.49,857.00 1423.97,859.34 1414.69,864.00
             1414.69,864.00 1406.78,836.00 1406.78,836.00
             1419.38,830.00 1434.36,827.00 1451.75,827.00
             1475.68,827.00 1493.21,832.44 1504.34,843.31
             1515.48,854.19 1521.05,874.80 1521.05,905.14
             1521.05,905.14 1521.05,938.64 1521.05,938.64
             1521.05,959.52 1525.24,972.64 1533.64,978.00
             1530.61,983.47 1527.24,986.84 1523.53,988.09
             1519.82,989.36 1515.58,990.00 1510.80,990.00
             1505.52,990.00 1500.77,988.00 1496.58,984.00
             1492.38,979.99 1489.55,975.64 1488.08,970.94 Z
           M 1484.56,913.00
           C 1478.31,911.67 1473.62,911.00 1470.50,911.00
             1441.59,911.00 1427.14,920.57 1427.14,939.70
             1427.14,953.90 1435.30,961.00 1451.61,961.00
             1473.58,961.00 1484.56,949.92 1484.56,927.77
             1484.56,927.77 1484.56,913.00 1484.56,913.00 Z
           M 1586.70,978.42
           C 1586.70,978.42 1578.50,990.00 1578.50,990.00
             1578.50,990.00 1557.84,990.00 1557.84,990.00
             1557.84,990.00 1557.84,771.80 1557.84,771.80
             1557.84,771.80 1594.47,763.00 1594.47,763.00
             1594.47,763.00 1594.47,835.94 1594.47,835.94
             1604.24,829.98 1614.88,827.00 1626.41,827.00
             1649.35,827.00 1667.86,834.27 1681.92,848.80
             1695.98,863.32 1703.02,881.92 1703.02,904.61
             1703.02,930.92 1695.93,951.73 1681.77,967.05
             1667.61,982.35 1648.42,990.00 1624.20,990.00
             1609.65,990.00 1597.15,986.14 1586.70,978.42 Z
           M 1594.47,867.27
           C 1594.47,867.27 1594.47,949.44 1594.47,949.44
             1599.84,955.81 1607.12,959.00 1616.30,959.00
             1633.96,959.00 1646.48,954.79 1653.86,946.36
             1661.23,937.93 1664.92,924.45 1664.92,905.92
             1664.92,873.98 1649.69,858.00 1619.22,858.00
             1608.38,858.00 1600.13,861.09 1594.47,867.27 Z" />

  <path id="White"
        fill="#FFFFFF" stroke="none" stroke-width="1"
        d="M 831.94,457.81
           C 831.94,485.26 825.28,521.78 850.50,539.00
             867.16,550.37 903.81,548.00 924.00,548.00
             954.00,548.00 1025.06,556.44 1037.62,530.75
             1043.72,520.67 1045.25,502.56 1045.69,491.00
             1046.19,477.83 1045.11,456.88 1036.69,446.19
             1025.62,426.69 975.94,429.12 960.56,428.56
             960.56,428.56 849.00,422.50 849.00,422.50
             796.33,417.24 736.76,411.45 699.98,367.96
             672.93,335.97 663.49,279.94 663.01,239.00
             662.38,185.41 666.13,114.90 705.52,74.28
             733.05,45.88 775.02,33.90 813.00,28.61
             876.85,19.72 946.23,22.70 1011.00,23.00
             1058.17,23.22 1122.92,34.64 1157.88,68.28
             1208.06,116.53 1203.00,184.67 1203.00,248.00
             1203.00,248.00 1033.69,246.88 1033.69,246.88
             1033.69,223.56 1040.18,192.18 1019.62,176.38
             1006.04,165.92 992.44,164.75 982.88,164.75
             982.88,164.75 918.64,162.11 895.12,164.00
             856.88,168.50 841.18,171.29 840.04,218.00
             839.87,225.27 839.05,236.87 840.75,243.88
             849.70,280.73 881.62,276.88 916.12,279.50
             916.12,279.50 1005.00,284.12 1005.00,284.12
             1005.00,284.12 1029.00,286.74 1029.00,286.74
             1092.96,291.41 1169.32,300.50 1201.87,365.00
             1218.75,405.12 1218.75,430.62 1218.94,470.75
             1218.94,470.75 1218.27,521.00 1218.27,521.00
             1215.27,564.61 1210.56,607.38 1178.48,640.73
             1140.22,680.52 1084.22,688.61 1032.00,692.27
             1032.00,692.27 999.00,695.00 999.00,695.00
             937.88,695.29 876.69,696.72 816.00,689.46
             776.10,684.69 734.47,673.14 705.28,643.73
             658.25,596.34 663.00,519.48 663.00,458.00
             663.00,458.00 831.94,457.81 831.94,457.81 Z
           M 234.75,28.25
           C 234.75,28.25 473.25,27.50 473.25,27.50
             473.25,27.50 687.00,689.00 687.00,689.00
             687.00,689.00 24.00,689.00 24.00,689.00
             24.00,689.00 234.75,28.25 234.75,28.25 Z
           M 1257.00,26.00
           C 1257.00,26.00 1722.00,26.00 1722.00,26.00
             1722.00,26.00 1722.00,176.00 1722.00,176.00
             1722.00,176.00 1434.00,176.00 1434.00,176.00
             1434.00,176.00 1434.00,296.00 1434.00,296.00
             1434.00,296.00 1704.00,296.00 1704.00,296.00
             1704.00,296.00 1704.00,446.00 1704.00,446.00
             1704.00,446.00 1434.00,446.00 1434.00,446.00
             1434.00,446.00 1434.00,689.00 1434.00,689.00
             1434.00,689.00 1257.00,689.00 1257.00,689.00
             1257.00,689.00 1257.00,26.00 1257.00,26.00 Z
           M 1188.00,233.00
           C 1188.00,233.00 1188.56,163.25 1184.44,153.69
             1181.52,140.65 1176.67,121.77 1170.30,110.00
             1140.91,55.67 1078.04,38.69 1020.00,38.01
             1020.00,38.01 861.00,38.00 861.00,38.00
             816.73,38.53 749.83,51.69 717.52,83.55
             676.68,123.81 677.39,194.80 678.01,248.00
             678.42,282.90 688.72,332.05 711.98,358.88
             750.74,403.60 824.33,406.51 879.00,410.26
             879.00,410.26 921.00,413.01 921.00,413.01
             921.00,413.01 954.94,415.06 954.94,415.06
             985.27,416.38 1032.99,411.89 1051.88,440.38
             1061.03,454.18 1060.52,475.90 1060.50,491.75
             1060.48,506.31 1059.48,524.43 1052.44,537.69
             1042.28,556.81 1025.25,560.24 1005.38,563.56
             1005.38,563.56 896.06,564.12 896.06,564.12
             870.68,564.09 841.21,561.53 826.69,537.50
             819.86,526.20 817.66,510.21 817.31,497.19
             817.13,490.20 817.31,472.06 817.31,472.06
             817.31,472.06 677.44,471.88 677.44,471.88
             677.44,527.45 674.31,591.85 717.52,634.45
             744.48,661.04 782.89,670.07 819.00,675.26
             859.91,681.14 900.78,680.00 942.00,680.00
             984.68,680.00 1025.65,681.23 1068.00,674.24
             1103.50,668.38 1140.36,657.95 1166.45,631.48
             1206.66,590.70 1204.75,524.33 1204.12,470.56
             1203.93,454.22 1201.62,410.50 1196.88,395.00
             1172.75,315.95 1102.14,308.51 1032.00,301.50
             1032.00,301.50 969.00,296.12 969.00,296.12
             886.69,292.81 846.56,296.13 830.06,263.19
             824.82,252.72 824.66,229.75 825.12,218.00
             825.44,209.89 825.81,192.41 828.82,185.00
             847.48,139.10 932.18,150.45 972.82,150.64
             992.17,150.73 1016.10,153.11 1031.18,166.45
             1052.08,184.95 1047.00,207.79 1047.00,233.00
             1047.00,233.00 1188.00,233.00 1188.00,233.00 Z
           M 465.00,41.00
           C 465.00,41.00 243.75,42.50 243.75,42.50
             243.75,42.50 42.00,674.00 42.00,674.00
             42.00,674.00 162.75,674.38 162.75,674.38
             162.75,674.38 254.34,638.19 254.34,638.19
             254.34,638.19 78.00,638.00 78.00,638.00
             78.00,638.00 82.12,622.25 82.12,622.25
             82.12,622.25 291.38,622.34 291.38,622.34
             298.12,619.73 301.70,613.81 305.61,607.94
             321.19,584.54 314.54,561.95 311.16,536.00
             309.81,525.67 308.66,502.45 301.32,495.46
             298.12,492.42 292.41,489.22 292.41,489.22
             292.41,489.22 280.78,502.16 280.78,502.16
             280.78,502.16 289.41,508.44 289.41,508.44
             294.18,519.81 294.87,541.44 297.37,557.75
             298.30,566.41 300.73,578.09 297.37,586.54
             292.78,600.02 284.81,609.69 270.94,614.56
             270.94,614.56 251.62,593.38 251.62,593.38
             251.62,593.38 93.00,593.00 93.00,593.00
             93.00,593.00 97.50,578.00 97.50,578.00
             97.50,578.00 237.00,578.00 237.00,578.00
             237.00,578.00 228.00,545.00 228.00,545.00
             228.00,545.00 111.00,545.00 111.00,545.00
             111.00,545.00 114.00,530.00 114.00,530.00
             114.00,530.00 225.00,530.00 225.00,530.00
             219.87,502.77 206.03,456.90 207.97,431.00
             211.53,383.44 218.02,358.11 237.38,315.12
             242.14,304.54 258.18,276.84 270.94,260.94
             272.81,258.60 273.38,255.69 274.12,252.69
             276.23,248.95 282.00,245.19 285.56,243.88
             291.75,243.12 296.37,246.78 301.88,246.12
             314.44,242.75 322.50,238.25 351.56,246.12
             362.44,248.94 372.00,261.12 372.00,261.12
             372.00,261.12 399.00,265.62 414.94,274.44
             414.00,282.31 411.00,291.50 402.56,301.81
             393.05,307.15 375.52,299.51 364.28,309.95
             355.92,317.72 350.33,344.43 348.00,356.00
             348.00,356.00 364.88,359.56 364.88,359.56
             364.88,359.56 369.94,342.12 369.94,342.12
             426.29,354.98 517.78,390.45 545.25,444.12
             557.05,467.19 555.00,504.39 555.00,530.00
             555.00,530.00 600.00,530.00 600.00,530.00
             600.00,530.00 603.00,545.00 603.00,545.00
             603.00,545.00 553.83,544.87 553.83,544.87
             553.83,544.87 553.23,561.96 550.75,578.00
             550.75,578.00 613.50,578.00 613.50,578.00
             613.50,578.00 618.00,593.00 618.00,593.00
             618.00,593.00 548.48,593.00 548.48,593.00
             548.48,593.00 548.47,593.64 543.38,622.00
             543.38,622.00 628.12,622.00 628.12,622.00
             628.12,622.00 632.00,638.00 632.00,638.00
             632.00,638.00 540.25,638.00 540.25,638.00
             540.25,638.00 538.43,647.91 536.22,655.09
             536.22,655.09 561.52,666.17 579.13,674.39
             579.13,674.39 633.13,674.39 665.22,674.39
             665.22,674.39 465.00,41.00 465.00,41.00 Z
           M 1707.00,41.00
           C 1707.00,41.00 1272.00,41.00 1272.00,41.00
             1272.00,41.00 1272.00,674.38 1272.00,674.38
             1272.00,674.38 1419.00,674.38 1419.00,674.38
             1419.00,674.38 1419.00,431.00 1419.00,431.00
             1419.00,431.00 1689.00,431.00 1689.00,431.00
             1689.00,431.00 1689.00,308.00 1689.00,308.00
             1689.00,308.00 1419.00,308.00 1419.00,308.00
             1419.00,308.00 1419.00,164.00 1419.00,164.00
             1419.00,164.00 1707.00,164.00 1707.00,164.00
             1707.00,164.00 1707.00,41.00 1707.00,41.00 Z
           M 384.00,473.00
           C 384.00,473.00 385.13,507.21 382.72,524.00
             376.51,567.27 370.68,577.57 357.00,617.00
             362.66,616.80 375.75,616.62 375.75,616.62
             389.44,586.44 393.99,565.29 396.00,551.00
             396.00,551.00 431.06,565.62 431.06,565.62
             437.76,578.45 437.25,588.31 437.25,596.56
             434.85,606.71 427.33,612.94 423.00,623.00
             423.00,623.00 460.31,633.69 460.31,633.69
             452.06,598.25 450.19,563.56 444.94,554.56
             444.94,554.56 399.00,533.00 399.00,533.00
             403.50,513.12 401.44,475.06 401.44,475.06
             401.44,475.06 384.00,473.00 384.00,473.00 Z
           M 1535.95,0.83" />
</svg>
